<svg width="47" height="47" viewBox="0 0 47 47" fill="none" xmlns="http://www.w3.org/2000/svg">
<rect width="47" height="47" rx="5" fill="url(#paint0_linear_661_3255)"/>
<g clip-path="url(#clip0_661_3255)">
<path d="M20.2274 30.1469C20.2274 31.1339 19.4541 31.9339 18.5002 31.9339C17.5462 31.9339 16.7729 31.1339 16.7729 30.1469C16.7729 29.16 17.5462 28.3599 18.5002 28.3599C19.4541 28.3599 20.2274 29.16 20.2274 30.1469ZM18.0445 30.1469C18.0445 30.4072 18.2485 30.6183 18.5002 30.6183C18.7518 30.6183 18.9558 30.4072 18.9558 30.1469C18.9558 29.8866 18.7518 29.6755 18.5002 29.6755C18.2485 29.6755 18.0445 29.8866 18.0445 30.1469Z" fill="white"/>
<path d="M25.3824 30.0688C25.3824 31.1353 24.5397 31.9998 23.5 31.9998C22.4604 31.9998 21.6177 31.1353 21.6177 30.0688C21.6177 29.0023 22.4604 28.1377 23.5 28.1377C24.5397 28.1377 25.3824 29.0023 25.3824 30.0688ZM23.0034 30.0688C23.0034 30.35 23.2258 30.5781 23.5 30.5781C23.7743 30.5781 23.9966 30.35 23.9966 30.0688C23.9966 29.7874 23.7743 29.5594 23.5 29.5594C23.2258 29.5594 23.0034 29.7874 23.0034 30.0688Z" fill="white"/>
<path d="M30.3183 30.1469C30.3183 31.1339 29.545 31.9339 28.591 31.9339C27.6371 31.9339 26.8638 31.1339 26.8638 30.1469C26.8638 29.16 27.6371 28.3599 28.591 28.3599C29.545 28.3599 30.3183 29.16 30.3183 30.1469ZM28.1354 30.1469C28.1354 30.4072 28.3394 30.6183 28.591 30.6183C28.8427 30.6183 29.0467 30.4072 29.0467 30.1469C29.0467 29.8866 28.8427 29.6755 28.591 29.6755C28.3394 29.6755 28.1354 29.8866 28.1354 30.1469Z" fill="white"/>
<path d="M19.591 16.4621L14.8638 22.0583H32.1365L25.5001 13.8286L21.4547 18.8135L19.591 16.4621Z" fill="#E2C4FF"/>
<path d="M20.8636 13.7814C22.169 13.7814 23.2273 12.6866 23.2273 11.336C23.2273 9.98547 22.169 8.89062 20.8636 8.89062C19.5582 8.89062 18.5 9.98547 18.5 11.336C18.5 12.6866 19.5582 13.7814 20.8636 13.7814Z" fill="#B29DEE"/>
<path d="M37.3724 4.57227H9.62769C8.75814 4.57227 8.05322 5.30156 8.05322 6.2012V24.8419C8.05322 25.7415 8.75814 26.4708 9.62769 26.4708H37.3724C38.2419 26.4708 38.9468 25.7415 38.9468 24.8419V6.2012C38.9468 5.30156 38.2419 4.57227 37.3724 4.57227Z" stroke="white"/>
<path d="M12.4575 17.2201C12.3344 17.347 12.1352 17.347 12.0121 17.2201L10.6815 15.8488C10.4812 15.6424 10.4812 15.3067 10.6815 15.1002L12.0121 13.7289C12.1352 13.6021 12.3344 13.6021 12.4575 13.7289C12.5813 13.8565 12.5813 14.064 12.4575 14.1916L11.5759 15.1002C11.3755 15.3067 11.3755 15.6424 11.5759 15.8488L12.4575 16.7575C12.5813 16.8851 12.5813 17.0926 12.4575 17.2201Z" fill="white"/>
<path d="M34.6334 17.0322C34.7565 17.159 34.9557 17.159 35.0788 17.0322L36.4094 15.6609C36.6097 15.4544 36.6097 15.1187 36.4094 14.9123L35.0788 13.541C34.9557 13.4141 34.7565 13.4141 34.6334 13.541C34.5096 13.6685 34.5096 13.876 34.6334 14.0036L35.5151 14.9123C35.7154 15.1187 35.7154 15.4544 35.5151 15.6609L34.6334 16.5695C34.5096 16.6971 34.5096 16.9045 34.6334 17.0322Z" fill="white"/>
</g>
<path d="M6.63533 40.049C6.29467 40.049 5.98667 39.9907 5.71133 39.874C5.44067 39.7573 5.226 39.5893 5.06733 39.37C4.90867 39.1507 4.827 38.8917 4.82233 38.593H5.87233C5.88633 38.7937 5.95633 38.9523 6.08233 39.069C6.213 39.1857 6.39033 39.244 6.61433 39.244C6.843 39.244 7.02267 39.1903 7.15333 39.083C7.284 38.971 7.34933 38.8263 7.34933 38.649C7.34933 38.5043 7.305 38.3853 7.21633 38.292C7.12767 38.1987 7.01567 38.1263 6.88033 38.075C6.74967 38.019 6.56767 37.9583 6.33433 37.893C6.017 37.7997 5.758 37.7087 5.55733 37.62C5.36133 37.5267 5.191 37.389 5.04633 37.207C4.90633 37.0203 4.83633 36.773 4.83633 36.465C4.83633 36.1757 4.90867 35.9237 5.05333 35.709C5.198 35.4943 5.401 35.331 5.66233 35.219C5.92367 35.1023 6.22233 35.044 6.55833 35.044C7.06233 35.044 7.47067 35.1677 7.78333 35.415C8.10067 35.6577 8.27567 35.9983 8.30833 36.437H7.23033C7.221 36.269 7.14867 36.1313 7.01333 36.024C6.88267 35.912 6.70767 35.856 6.48833 35.856C6.297 35.856 6.143 35.905 6.02633 36.003C5.91433 36.101 5.85833 36.2433 5.85833 36.43C5.85833 36.5607 5.90033 36.6703 5.98433 36.759C6.073 36.843 6.18033 36.913 6.30633 36.969C6.437 37.0203 6.619 37.081 6.85233 37.151C7.16967 37.2443 7.42867 37.3377 7.62933 37.431C7.83 37.5243 8.00267 37.6643 8.14733 37.851C8.292 38.0377 8.36433 38.2827 8.36433 38.586C8.36433 38.8473 8.29667 39.09 8.16133 39.314C8.026 39.538 7.82767 39.7177 7.56633 39.853C7.305 39.9837 6.99467 40.049 6.63533 40.049ZM10.194 34.82V40H9.21396V34.82H10.194ZM11.6592 35.66C11.4865 35.66 11.3419 35.6063 11.2252 35.499C11.1132 35.387 11.0572 35.2493 11.0572 35.086C11.0572 34.9227 11.1132 34.7873 11.2252 34.68C11.3419 34.568 11.4865 34.512 11.6592 34.512C11.8319 34.512 11.9742 34.568 12.0862 34.68C12.2029 34.7873 12.2612 34.9227 12.2612 35.086C12.2612 35.2493 12.2029 35.387 12.0862 35.499C11.9742 35.6063 11.8319 35.66 11.6592 35.66ZM12.1422 36.122V40H11.1622V36.122H12.1422ZM12.8584 38.047C12.8584 37.655 12.9354 37.3073 13.0894 37.004C13.2481 36.7007 13.4628 36.4673 13.7334 36.304C14.0041 36.1407 14.3051 36.059 14.6364 36.059C14.8884 36.059 15.1288 36.115 15.3574 36.227C15.5861 36.3343 15.7681 36.479 15.9034 36.661V34.82H16.8974V40H15.9034V39.426C15.7821 39.6173 15.6118 39.7713 15.3924 39.888C15.1731 40.0047 14.9188 40.063 14.6294 40.063C14.3028 40.063 14.0041 39.979 13.7334 39.811C13.4628 39.643 13.2481 39.4073 13.0894 39.104C12.9354 38.796 12.8584 38.4437 12.8584 38.047ZM15.9104 38.061C15.9104 37.823 15.8638 37.62 15.7704 37.452C15.6771 37.2793 15.5511 37.1487 15.3924 37.06C15.2338 36.9667 15.0634 36.92 14.8814 36.92C14.6994 36.92 14.5314 36.9643 14.3774 37.053C14.2234 37.1417 14.0974 37.2723 13.9994 37.445C13.9061 37.613 13.8594 37.8137 13.8594 38.047C13.8594 38.2803 13.9061 38.4857 13.9994 38.663C14.0974 38.8357 14.2234 38.9687 14.3774 39.062C14.5361 39.1553 14.7041 39.202 14.8814 39.202C15.0634 39.202 15.2338 39.1577 15.3924 39.069C15.5511 38.9757 15.6771 38.845 15.7704 38.677C15.8638 38.5043 15.9104 38.299 15.9104 38.061ZM21.4596 37.977C21.4596 38.117 21.4502 38.243 21.4316 38.355H18.5966C18.6199 38.635 18.7179 38.8543 18.8906 39.013C19.0632 39.1717 19.2756 39.251 19.5276 39.251C19.8916 39.251 20.1506 39.0947 20.3046 38.782H21.3616C21.2496 39.1553 21.0349 39.4633 20.7176 39.706C20.4002 39.944 20.0106 40.063 19.5486 40.063C19.1752 40.063 18.8392 39.9813 18.5406 39.818C18.2466 39.65 18.0156 39.4143 17.8476 39.111C17.6842 38.8077 17.6026 38.4577 17.6026 38.061C17.6026 37.6597 17.6842 37.3073 17.8476 37.004C18.0109 36.7007 18.2396 36.4673 18.5336 36.304C18.8276 36.1407 19.1659 36.059 19.5486 36.059C19.9172 36.059 20.2462 36.1383 20.5356 36.297C20.8296 36.4557 21.0559 36.682 21.2146 36.976C21.3779 37.2653 21.4596 37.599 21.4596 37.977ZM20.4446 37.697C20.4399 37.445 20.3489 37.2443 20.1716 37.095C19.9942 36.941 19.7772 36.864 19.5206 36.864C19.2779 36.864 19.0726 36.9387 18.9046 37.088C18.7412 37.2327 18.6409 37.4357 18.6036 37.697H20.4446ZM23.1549 36.724C23.2809 36.5187 23.4442 36.3577 23.6449 36.241C23.8502 36.1243 24.0836 36.066 24.3449 36.066V37.095H24.0859C23.7779 37.095 23.5446 37.1673 23.3859 37.312C23.2319 37.4567 23.1549 37.7087 23.1549 38.068V40H22.1749V36.122H23.1549V36.724ZM30.2359 36.626C30.2359 36.8873 30.1729 37.1323 30.0469 37.361C29.9256 37.5897 29.7319 37.774 29.4659 37.914C29.2046 38.054 28.8733 38.124 28.4719 38.124H27.6529V40H26.6729V35.114H28.4719C28.8499 35.114 29.1719 35.1793 29.4379 35.31C29.7039 35.4407 29.9023 35.6203 30.0329 35.849C30.1683 36.0777 30.2359 36.3367 30.2359 36.626ZM28.4299 37.333C28.7006 37.333 28.9013 37.2723 29.0319 37.151C29.1626 37.025 29.2279 36.85 29.2279 36.626C29.2279 36.15 28.9619 35.912 28.4299 35.912H27.6529V37.333H28.4299ZM30.6797 38.047C30.6797 37.655 30.7567 37.3073 30.9107 37.004C31.0694 36.7007 31.2817 36.4673 31.5477 36.304C31.8184 36.1407 32.1194 36.059 32.4507 36.059C32.7401 36.059 32.9921 36.1173 33.2067 36.234C33.4261 36.3507 33.6011 36.4977 33.7317 36.675V36.122H34.7187V40H33.7317V39.433C33.6057 39.615 33.4307 39.7667 33.2067 39.888C32.9874 40.0047 32.7331 40.063 32.4437 40.063C32.1171 40.063 31.8184 39.979 31.5477 39.811C31.2817 39.643 31.0694 39.4073 30.9107 39.104C30.7567 38.796 30.6797 38.4437 30.6797 38.047ZM33.7317 38.061C33.7317 37.823 33.6851 37.62 33.5917 37.452C33.4984 37.2793 33.3724 37.1487 33.2137 37.06C33.0551 36.9667 32.8847 36.92 32.7027 36.92C32.5207 36.92 32.3527 36.9643 32.1987 37.053C32.0447 37.1417 31.9187 37.2723 31.8207 37.445C31.7274 37.613 31.6807 37.8137 31.6807 38.047C31.6807 38.2803 31.7274 38.4857 31.8207 38.663C31.9187 38.8357 32.0447 38.9687 32.1987 39.062C32.3574 39.1553 32.5254 39.202 32.7027 39.202C32.8847 39.202 33.0551 39.1577 33.2137 39.069C33.3724 38.9757 33.4984 38.845 33.5917 38.677C33.6851 38.5043 33.7317 38.299 33.7317 38.061ZM36.8169 36.927V38.803C36.8169 38.9337 36.8472 39.0293 36.9079 39.09C36.9732 39.146 37.0805 39.174 37.2299 39.174H37.6849V40H37.0689C36.2429 40 35.8299 39.5987 35.8299 38.796V36.927H35.3679V36.122H35.8299V35.163H36.8169V36.122H37.6849V36.927H36.8169ZM40.5737 36.066C40.8677 36.066 41.1291 36.1313 41.3577 36.262C41.5864 36.388 41.7637 36.577 41.8897 36.829C42.0204 37.0763 42.0857 37.375 42.0857 37.725V40H41.1057V37.858C41.1057 37.55 41.0287 37.3143 40.8747 37.151C40.7207 36.983 40.5107 36.899 40.2447 36.899C39.9741 36.899 39.7594 36.983 39.6007 37.151C39.4467 37.3143 39.3697 37.55 39.3697 37.858V40H38.3897V34.82H39.3697V36.605C39.4957 36.437 39.6637 36.3063 39.8737 36.213C40.0837 36.115 40.3171 36.066 40.5737 36.066Z" fill="white"/>
<defs>
<linearGradient id="paint0_linear_661_3255" x1="57.8672" y1="-21.009" x2="-16.2133" y2="-14.4144" gradientUnits="userSpaceOnUse">
<stop stop-color="#E2C4FF"/>
<stop offset="1" stop-color="#1C1790"/>
</linearGradient>
<clipPath id="clip0_661_3255">
<rect width="32" height="28" fill="white" transform="translate(7.5 4)"/>
</clipPath>
</defs>
</svg>
